<svg width="8" height="15" viewBox="0 0 8 15" fill="none" xmlns="http://www.w3.org/2000/svg">
<path d="M7.99009 13.5069L7.39557 8.3471H7.41199C7.58654 8.3471 7.72826 8.18335 7.72826 7.98135V0.543604C7.72826 0.415104 7.67036 0.296504 7.57531 0.230304C7.48025 0.164104 7.36273 0.160154 7.26466 0.220004C6.03198 0.972604 5.26074 2.45245 5.26074 4.06565V7.20175C5.26074 7.8342 5.70361 8.3471 6.2506 8.3471H6.32535L5.73083 13.5068C5.68762 13.8834 5.78699 14.2639 6.00303 14.5497C6.21949 14.8356 6.5323 14.9998 6.86067 14.9998C7.18904 14.9998 7.50142 14.8356 7.71789 14.5497C7.93435 14.2639 8.03329 13.8834 7.99009 13.5069Z" fill="#E66767"/>
<path d="M3.03698 0C2.79718 0 2.60319 0.2246 2.60319 0.50205V3.3067H2.16939V0.50205C2.16939 0.2246 1.9754 0 1.7356 0C1.4958 0 1.30181 0.2246 1.30181 0.50205V3.3067H0.867757V0.50205C0.867714 0.2246 0.673676 0 0.43388 0C0.194042 0 0 0.2246 0 0.50205V5.03365C0 5.77845 0.521544 6.382 1.16528 6.382H1.26119L0.577497 13.503C0.541074 13.884 0.646541 14.265 0.867283 14.5509C1.08837 14.8367 1.40421 15 1.7356 15C2.06699 15 2.3824 14.8367 2.60362 14.5509C2.8244 14.265 2.92983 13.884 2.89353 13.503L2.20957 6.38205H2.30592C2.94927 6.38205 3.4712 5.7785 3.4712 5.0337V0.50205C3.47077 0.2246 3.27677 0 3.03698 0Z" fill="#E66767"/>
</svg>
